<svg width="901" height="533" viewBox="0 0 901 533" fill="none" xmlns="http://www.w3.org/2000/svg">
<g clip-path="url(#clip0_40_16)">
<path fill-rule="evenodd" clip-rule="evenodd" d="M301.462 314.318C298.602 385.186 242.336 441.734 173.318 441.734C102.469 441.734 45.0352 380.152 45.0352 308.659C45.0352 299.104 44.8701 280.006 58.6823 247.785C66.9483 228.502 72.1328 216.388 75.0588 205.314C76.6664 199.228 79.7929 189.559 88.7058 205.314C93.9613 214.604 94.1647 227.965 94.1647 227.965C94.1647 227.965 113.718 212.4 126.918 182.663C146.268 139.07 130.829 113.012 125.553 94.8908C123.727 88.6222 122.581 77.3561 135.106 82.1496C147.869 87.0352 181.61 111.536 199.247 137.361C224.419 174.219 233.365 209.561 233.365 209.561C233.365 209.561 241.425 199.184 244.282 188.326C247.51 176.065 247.558 163.921 257.928 177.002C267.791 189.442 282.438 212.819 290.682 235.044C305.652 275.404 301.462 314.318 301.462 314.318Z" fill="url(#paint0_linear_40_16)"/>
<path fill-rule="evenodd" clip-rule="evenodd" d="M173.318 441.734C124.326 441.734 84.6118 400.536 84.6118 349.714C84.6118 319.049 96.5243 300.432 121.317 275.184C137.191 259.018 152.049 239.163 158.363 225.644C159.606 222.982 162.436 209.113 173.344 225.352C179.066 233.869 188.036 249.015 193.788 261.942C203.704 284.229 206.071 305.828 206.071 305.828C206.071 305.828 215.789 299.888 222.447 284.593C224.594 279.663 228.934 261.002 241.066 279.661C249.968 293.353 262.197 317.972 262.024 349.714C262.024 400.536 222.308 441.734 173.318 441.734Z" fill="#FC9502"/>
<path fill-rule="evenodd" clip-rule="evenodd" d="M174.682 341.22C187.306 341.22 187.306 365.47 203.341 397.848C214.019 419.407 198.047 441.734 174.682 441.734C151.317 441.734 139.2 422.086 139.2 397.848C139.2 373.611 162.059 341.22 174.682 341.22Z" fill="#FCE202"/>
</g>
<g clip-path="url(#clip1_40_16)">
<path fill-rule="evenodd" clip-rule="evenodd" d="M854.462 314.318C851.602 385.186 795.336 441.734 726.318 441.734C655.469 441.734 598.035 380.152 598.035 308.659C598.035 299.104 597.87 280.006 611.682 247.785C619.948 228.502 625.133 216.388 628.059 205.314C629.666 199.228 632.793 189.559 641.706 205.314C646.961 214.604 647.165 227.965 647.165 227.965C647.165 227.965 666.718 212.4 679.918 182.663C699.268 139.07 683.829 113.012 678.553 94.8908C676.727 88.6222 675.581 77.3561 688.106 82.1496C700.869 87.0352 734.61 111.536 752.247 137.361C777.419 174.219 786.365 209.561 786.365 209.561C786.365 209.561 794.425 199.184 797.282 188.326C800.51 176.065 800.558 163.921 810.928 177.002C820.791 189.442 835.438 212.819 843.682 235.044C858.652 275.404 854.462 314.318 854.462 314.318Z" fill="url(#paint1_linear_40_16)"/>
<path fill-rule="evenodd" clip-rule="evenodd" d="M726.318 441.734C677.326 441.734 637.612 400.536 637.612 349.714C637.612 319.049 649.524 300.432 674.317 275.184C690.191 259.018 705.049 239.163 711.363 225.644C712.606 222.982 715.436 209.113 726.344 225.352C732.066 233.869 741.036 249.015 746.788 261.942C756.704 284.229 759.071 305.828 759.071 305.828C759.071 305.828 768.789 299.888 775.447 284.593C777.594 279.663 781.934 261.002 794.066 279.661C802.968 293.353 815.197 317.972 815.024 349.714C815.024 400.536 775.308 441.734 726.318 441.734Z" fill="#FC9502"/>
<path fill-rule="evenodd" clip-rule="evenodd" d="M727.682 341.22C740.306 341.22 740.306 365.47 756.341 397.848C767.018 419.407 751.047 441.734 727.682 441.734C704.317 441.734 692.2 422.086 692.2 397.848C692.2 373.611 715.059 341.22 727.682 341.22Z" fill="#FCE202"/>
</g>
<path d="M350.5 525.5C379.167 353.167 456.7 111.9 537.5 525.5H350.5Z" fill="#0E1423" stroke="#0E1423" stroke-width="15" stroke-linecap="round"/>
<path d="M85 10L277 202" stroke="black" stroke-width="20" stroke-linecap="round"/>
<path d="M832 10L640 202" stroke="black" stroke-width="20" stroke-linecap="round"/>
<defs>
<linearGradient id="paint0_linear_40_16" x1="173.51" y1="442" x2="173.51" y2="81.2662" gradientUnits="userSpaceOnUse">
<stop stop-color="#FF4C0D"/>
<stop offset="1" stop-color="#FC9502"/>
</linearGradient>
<linearGradient id="paint1_linear_40_16" x1="726.51" y1="442" x2="726.51" y2="81.2662" gradientUnits="userSpaceOnUse">
<stop stop-color="#FF4C0D"/>
<stop offset="1" stop-color="#FC9502"/>
</linearGradient>
<clipPath id="clip0_40_16">
<rect width="348" height="361" fill="white" transform="translate(0 81)"/>
</clipPath>
<clipPath id="clip1_40_16">
<rect width="348" height="361" fill="white" transform="translate(553 81)"/>
</clipPath>
</defs>
</svg>
